<mxfile host="app.diagrams.net" agent="Mozilla/5.0 (Windows NT 10.0; Win64; x64) AppleWebKit/537.36 (KHTML, like Gecko) Chrome/138.0.0.0 Safari/537.36" version="28.0.7">
  <diagram name="Page-1" id="4Rpj1U_6kdam0aR1m3RN">
    <mxGraphModel dx="872" dy="2665" grid="1" gridSize="10" guides="1" tooltips="1" connect="1" arrows="1" fold="1" page="1" pageScale="1" pageWidth="850" pageHeight="1100" math="0" shadow="0">
      <root>
        <mxCell id="0" />
        <mxCell id="1" parent="0" />
        <mxCell id="jsvCUZIJ5hZrkPMTvh93-9" value="" style="edgeStyle=orthogonalEdgeStyle;rounded=0;orthogonalLoop=1;jettySize=auto;html=1;" edge="1" parent="1" source="jsvCUZIJ5hZrkPMTvh93-1" target="jsvCUZIJ5hZrkPMTvh93-2">
          <mxGeometry relative="1" as="geometry" />
        </mxCell>
        <mxCell id="jsvCUZIJ5hZrkPMTvh93-1" value="&lt;b&gt;&lt;font style=&quot;font-size: 18px;&quot;&gt;plan&lt;/font&gt;&lt;/b&gt;" style="ellipse;whiteSpace=wrap;html=1;" vertex="1" parent="1">
          <mxGeometry x="370" y="-2100" width="120" height="80" as="geometry" />
        </mxCell>
        <mxCell id="jsvCUZIJ5hZrkPMTvh93-10" value="" style="edgeStyle=orthogonalEdgeStyle;rounded=0;orthogonalLoop=1;jettySize=auto;html=1;" edge="1" parent="1" source="jsvCUZIJ5hZrkPMTvh93-2" target="jsvCUZIJ5hZrkPMTvh93-3">
          <mxGeometry relative="1" as="geometry" />
        </mxCell>
        <mxCell id="jsvCUZIJ5hZrkPMTvh93-2" value="&lt;b&gt;&lt;font style=&quot;font-size: 18px;&quot;&gt;Develop&lt;/font&gt;&lt;/b&gt;" style="ellipse;whiteSpace=wrap;html=1;" vertex="1" parent="1">
          <mxGeometry x="370" y="-1980" width="120" height="80" as="geometry" />
        </mxCell>
        <mxCell id="jsvCUZIJ5hZrkPMTvh93-11" value="" style="edgeStyle=orthogonalEdgeStyle;rounded=0;orthogonalLoop=1;jettySize=auto;html=1;" edge="1" parent="1" source="jsvCUZIJ5hZrkPMTvh93-3" target="jsvCUZIJ5hZrkPMTvh93-4">
          <mxGeometry relative="1" as="geometry" />
        </mxCell>
        <mxCell id="jsvCUZIJ5hZrkPMTvh93-3" value="&lt;b&gt;&lt;font style=&quot;font-size: 18px;&quot;&gt;Build&lt;/font&gt;&lt;/b&gt;" style="ellipse;whiteSpace=wrap;html=1;" vertex="1" parent="1">
          <mxGeometry x="370" y="-1850" width="120" height="80" as="geometry" />
        </mxCell>
        <mxCell id="jsvCUZIJ5hZrkPMTvh93-12" value="" style="edgeStyle=orthogonalEdgeStyle;rounded=0;orthogonalLoop=1;jettySize=auto;html=1;" edge="1" parent="1" source="jsvCUZIJ5hZrkPMTvh93-4" target="jsvCUZIJ5hZrkPMTvh93-5">
          <mxGeometry relative="1" as="geometry" />
        </mxCell>
        <mxCell id="jsvCUZIJ5hZrkPMTvh93-4" value="&lt;b&gt;&lt;font style=&quot;font-size: 18px;&quot;&gt;Test&lt;/font&gt;&lt;/b&gt;" style="ellipse;whiteSpace=wrap;html=1;" vertex="1" parent="1">
          <mxGeometry x="370" y="-1730" width="120" height="80" as="geometry" />
        </mxCell>
        <mxCell id="jsvCUZIJ5hZrkPMTvh93-13" value="" style="edgeStyle=orthogonalEdgeStyle;rounded=0;orthogonalLoop=1;jettySize=auto;html=1;" edge="1" parent="1" source="jsvCUZIJ5hZrkPMTvh93-5" target="jsvCUZIJ5hZrkPMTvh93-6">
          <mxGeometry relative="1" as="geometry" />
        </mxCell>
        <mxCell id="jsvCUZIJ5hZrkPMTvh93-5" value="&lt;b&gt;&lt;font style=&quot;font-size: 18px;&quot;&gt;Release&lt;/font&gt;&lt;/b&gt;" style="ellipse;whiteSpace=wrap;html=1;" vertex="1" parent="1">
          <mxGeometry x="370" y="-1610" width="120" height="80" as="geometry" />
        </mxCell>
        <mxCell id="jsvCUZIJ5hZrkPMTvh93-14" value="" style="edgeStyle=orthogonalEdgeStyle;rounded=0;orthogonalLoop=1;jettySize=auto;html=1;" edge="1" parent="1" source="jsvCUZIJ5hZrkPMTvh93-6" target="jsvCUZIJ5hZrkPMTvh93-7">
          <mxGeometry relative="1" as="geometry" />
        </mxCell>
        <mxCell id="jsvCUZIJ5hZrkPMTvh93-6" value="&lt;b&gt;&lt;font style=&quot;font-size: 18px;&quot;&gt;Deploy&lt;/font&gt;&lt;/b&gt;" style="ellipse;whiteSpace=wrap;html=1;" vertex="1" parent="1">
          <mxGeometry x="370" y="-1480" width="120" height="80" as="geometry" />
        </mxCell>
        <mxCell id="jsvCUZIJ5hZrkPMTvh93-15" value="" style="edgeStyle=orthogonalEdgeStyle;rounded=0;orthogonalLoop=1;jettySize=auto;html=1;" edge="1" parent="1" source="jsvCUZIJ5hZrkPMTvh93-7" target="jsvCUZIJ5hZrkPMTvh93-8">
          <mxGeometry relative="1" as="geometry" />
        </mxCell>
        <mxCell id="jsvCUZIJ5hZrkPMTvh93-7" value="&lt;b&gt;&lt;font style=&quot;font-size: 18px;&quot;&gt;Operate&lt;/font&gt;&lt;/b&gt;" style="ellipse;whiteSpace=wrap;html=1;" vertex="1" parent="1">
          <mxGeometry x="370" y="-1360" width="120" height="80" as="geometry" />
        </mxCell>
        <mxCell id="jsvCUZIJ5hZrkPMTvh93-8" value="&lt;b&gt;&lt;font style=&quot;font-size: 18px;&quot;&gt;Monitor&lt;/font&gt;&lt;/b&gt;" style="ellipse;whiteSpace=wrap;html=1;" vertex="1" parent="1">
          <mxGeometry x="370" y="-1240" width="120" height="80" as="geometry" />
        </mxCell>
      </root>
    </mxGraphModel>
  </diagram>
</mxfile>
